# xmcd
#
# Track frame offsets:
#	182
#	20347
#	36035
#	57715
#	70375
#	90040
#	107807
#	122195
#	150787
#	164787
#
# Disc length: 2527 seconds
#
# Revision: 2
# Processed by: cddbd v1.4PL0 Copyright (c) Steve Scherf et al.
# Submitted via: MusicWizard 6.0.2
#
DISCID=7c09dd0a
DTITLE=Mystic Moods Orchestra - Moods For A Stormy Night
DYEAR=1900
DGENRE=Easy Listening
TTITLE0=The Look Of Love
TTITLE1=Love Theme From A RHAPSODY
TTITLE2=Far From The Madding Crowd
TTITLE3=Moonlight
TTITLE4=Friendly Persuasion
TTITLE5=Can't Take My Eyes Off You
TTITLE6=Live For Life
TTITLE7=Tristan and Isolde
TTITLE8=A Very Precious Love
TTITLE9=The Glory Of Love
EXTD=
EXTT0=
EXTT1=
EXTT2=
EXTT3=
EXTT4=
EXTT5=
EXTT6=
EXTT7=
EXTT8=
EXTT9=
PLAYORDER=
